<svg xmlns="http://www.w3.org/2000/svg" viewBox="0 0 216 180"><defs><style>.cls-1{fill:#4848ff;}</style></defs><title>Recurso 39</title><g id="Capa_2" data-name="Capa 2"><g id="icon"><path class="cls-1" d="M216,90a18,18,0,0,1-18,18H18a18,18,0,0,1,0-36H198A18,18,0,0,1,216,90Z"/><path class="cls-1" d="M216,162a18,18,0,0,1-18,18H18a18,18,0,0,1-3.36-35.68A17.72,17.72,0,0,1,18,144H198a17.72,17.72,0,0,1,3.36.32A18,18,0,0,1,216,162Z"/><path class="cls-1" d="M216,18a18,18,0,0,1-14.64,17.68A17.72,17.72,0,0,1,198,36H18a17.72,17.72,0,0,1-3.36-.32A18,18,0,0,1,18,0H198A18,18,0,0,1,216,18Z"/></g></g></svg>