<svg xmlns="http://www.w3.org/2000/svg" viewBox="0 0 216 216"><defs><style>.cls-1{fill:#45ff99;}</style></defs><title>green</title><g id="Capa_2" data-name="Capa 2"><g id="icon"><path class="cls-1" d="M72,126H18A18,18,0,0,1,0,108,108,108,0,0,1,172.77,21.58a18,18,0,1,1-21.54,28.84l-.15-.11A72,72,0,0,0,38.27,90H72a18,18,0,0,1,0,36Z"/><path class="cls-1" d="M216,108A108,108,0,0,1,43.8,194.83l-.57-.41-.68-.53a18,18,0,0,1,22.22-28.31l.15.11A72,72,0,0,0,177.73,126H144a18,18,0,0,1,0-36h54A18,18,0,0,1,216,108Z"/></g></g></svg>