<svg xmlns="http://www.w3.org/2000/svg" viewBox="0 0 180 180"><defs><style>.cls-1{fill:#45ff99;}</style></defs><title>Recurso 20</title><g id="Capa_2" data-name="Capa 2"><g id="icon"><path class="cls-1" d="M174.73,149.27,134,108.57A71.32,71.32,0,0,0,141.73,90a71.94,71.94,0,0,0-22.12-72q-2.11-1.89-4.38-3.58l-.15-.11A72,72,0,0,0,10,35.43,71.32,71.32,0,0,0,2.27,54a71.94,71.94,0,0,0,22.12,72q2.12,1.89,4.38,3.58l.15.11A72,72,0,0,0,108.57,134l40.7,40.7a18,18,0,0,0,25.46-25.46Zm-67.95-68a35.68,35.68,0,0,1-3.27,8.11h0c-.1.19-.21.38-.32.57a36,36,0,0,1-62.36,0c-.11-.19-.22-.38-.32-.57h0a36,36,0,0,1,0-34.86h0c.1-.19.21-.38.32-.57a36,36,0,0,1,62.36,0c.11.19.22.38.32.57h0a36.12,36.12,0,0,1,3.27,26.75Z"/></g></g></svg>